# xmcd
#
# Track frame offsets: 
#        182
#        12600
#        27807
#        37515
#        52520
#        66362
#        77767
#        87705
#        106762
#        121127
#        134637
#
# Disc length: 1951 seconds
#
# Revision: 2
# Processed by: cddbd v1.5.2PL0 Copyright (c) Steve Scherf et al.
# Submitted via: ExactAudioCopy v0.95a5
#
DISCID=83079d0b
DTITLE=Tom T. Hall - American Legends
DYEAR=1995
DGENRE=
TTITLE0=The Year That Clayton Delaney Died
TTITLE1=Me And Jesus
TTITLE2=I Love
TTITLE3=Homecoming
TTITLE4=Ballad of Forty Dollars
TTITLE5=Ravishing Ruby
TTITLE6=Country Is
TTITLE7=Old Dogs - Children and Watermelon Wine
TTITLE8=That Song Is Driving Me Crazy
TTITLE9=Everything From Jesus To Jack Daniels
TTITLE10=Who's Gonna Feed Them Hogs
EXTD=
EXTT0=
EXTT1=
EXTT2=
EXTT3=
EXTT4=
EXTT5=
EXTT6=
EXTT7=
EXTT8=
EXTT9=
EXTT10=
PLAYORDER=
